<svg width="24" height="24" viewBox="0 0 24 25" fill="none" xmlns="http://www.w3.org/2000/svg">
<g id="email">
<path id="Icon" fill-rule="evenodd" clip-rule="evenodd" d="M10 3.05029H9.96644C8.59472 3.05029 7.51928 3.05028 6.65494 3.1209C5.77479 3.19282 5.04768 3.34167 4.38955 3.67701C3.30762 4.22828 2.42798 5.10792 1.87671 6.18985C1.54138 6.84798 1.39252 7.57509 1.32061 8.45523C1.24999 9.31958 1.25 10.395 1.25 11.7667V11.8003V13.8003V13.8339C1.25 15.2056 1.24999 16.281 1.32061 17.1454C1.39252 18.0255 1.54138 18.7526 1.87671 19.4107C2.42798 20.4927 3.30762 21.3723 4.38955 21.9236C5.04768 22.2589 5.77479 22.4078 6.65494 22.4797C7.51927 22.5503 8.59469 22.5503 9.96637 22.5503H9.96642H10H14H14.0336H14.0336C15.4053 22.5503 16.4807 22.5503 17.3451 22.4797C18.2252 22.4078 18.9523 22.2589 19.6104 21.9236C20.6924 21.3723 21.572 20.4927 22.1233 19.4107C22.4586 18.7526 22.6075 18.0255 22.6794 17.1454C22.75 16.281 22.75 15.2056 22.75 13.8339V13.8339V13.8003V11.8003V11.7667V11.7667C22.75 10.395 22.75 9.31956 22.6794 8.45523C22.6075 7.57509 22.4586 6.84798 22.1233 6.18985C21.572 5.10792 20.6924 4.22828 19.6104 3.67701C18.9523 3.34167 18.2252 3.19282 17.3451 3.1209C16.4807 3.05028 15.4053 3.05029 14.0336 3.05029H14H10ZM5.07054 5.01352C5.48197 4.80388 5.9897 4.68025 6.77708 4.61592C7.57322 4.55088 8.58749 4.55029 10 4.55029H14C15.4125 4.55029 16.4268 4.55088 17.2229 4.61592C18.0103 4.68025 18.518 4.80388 18.9295 5.01352C19.7291 5.42098 20.3793 6.07114 20.7868 6.87083C20.9964 7.28226 21.12 7.79 21.1844 8.57738C21.2494 9.37351 21.25 10.3878 21.25 11.8003V13.8003C21.25 15.2128 21.2494 16.2271 21.1844 17.0232C21.12 17.8106 20.9964 18.3183 20.7868 18.7298C20.3793 19.5294 19.7291 20.1796 18.9295 20.5871C18.518 20.7967 18.0103 20.9203 17.2229 20.9847C16.4268 21.0497 15.4125 21.0503 14 21.0503H10C8.58749 21.0503 7.57322 21.0497 6.77708 20.9847C5.9897 20.9203 5.48197 20.7967 5.07054 20.5871C4.27085 20.1796 3.62068 19.5294 3.21322 18.7298C3.00359 18.3183 2.87996 17.8106 2.81563 17.0232C2.75058 16.2271 2.75 15.2128 2.75 13.8003V11.8003C2.75 10.3878 2.75058 9.37351 2.81563 8.57738C2.87996 7.79 3.00359 7.28226 3.21322 6.87083C3.62068 6.07114 4.27085 5.42098 5.07054 5.01352ZM6.41603 8.17626C6.07138 7.94649 5.60573 8.03962 5.37596 8.38427C5.1462 8.72891 5.23933 9.19457 5.58398 9.42433L6.58398 10.091L6.70034 10.1686L6.70035 10.1686C8.19864 11.1677 9.09026 11.7622 10.0527 12.0522C11.3227 12.4348 12.6773 12.4348 13.9473 12.0522C14.9097 11.7622 15.8014 11.1677 17.2997 10.1686L17.416 10.091L18.416 9.42433C18.7607 9.19457 18.8538 8.72891 18.624 8.38427C18.3943 8.03962 17.9286 7.94649 17.584 8.17626L16.584 8.84292C14.9337 9.94311 14.2367 10.3984 13.5145 10.616C12.5268 10.9136 11.4732 10.9136 10.4855 10.616C9.76334 10.3984 9.0663 9.94311 7.41603 8.84292L6.41603 8.17626Z" fill="#04B939"/>
</g>
</svg>
