<svg width="24" height="24" viewBox="0 0 24 24" fill="none" xmlns="http://www.w3.org/2000/svg">
<g id="phone">
<path id="Icon" fill-rule="evenodd" clip-rule="evenodd" d="M5.08852 2.7499C5.96102 2.7499 6.19768 2.7617 6.37971 2.83038C6.61706 2.91994 6.82155 3.0796 6.966 3.28815C7.07679 3.44809 7.14563 3.67481 7.35724 4.52126L7.47953 5.01042C7.78077 6.21538 7.8883 6.67454 7.87149 7.11257C7.85575 7.52276 7.76244 7.92626 7.5965 8.30171C7.4193 8.70266 7.1211 9.06799 6.32144 10.0184L4.92295 11.6804C3.91348 9.70489 3.23168 7.46134 2.92862 4.98981C2.81457 4.05966 2.80285 3.82523 2.8876 3.58462C2.98298 3.31382 3.25373 3.00784 3.51091 2.88021C3.60708 2.83248 3.73485 2.79461 3.98252 2.77317C4.24376 2.75055 4.57881 2.7499 5.08852 2.7499ZM7.4692 10.9841L5.71436 13.0697C6.98811 15.0843 8.64357 16.7756 10.6247 18.0878L13.1145 16.2235L13.2006 16.159C14.0128 15.5506 14.5361 15.1586 15.129 14.9243C15.6532 14.7171 16.2101 14.6049 16.7737 14.5928C17.4111 14.5792 18.0453 14.7379 19.0298 14.9843L19.1341 15.0104L19.8424 15.1874L19.9631 15.2175C20.6297 15.3835 21.1508 15.5133 21.5658 15.8008C22.0246 16.1186 22.3759 16.5685 22.5729 17.0906C22.7511 17.5629 22.7507 18.0898 22.7501 18.7612L22.75 18.8811V18.9114C22.75 19.3926 22.75 19.8 22.7212 20.1381C22.6908 20.4959 22.6248 20.8303 22.4633 21.1558C22.162 21.7629 21.5528 22.302 20.9136 22.5271C20.3021 22.7425 19.6992 22.6679 18.9486 22.5751L18.8273 22.5601C15.6136 22.166 12.7265 21.1661 10.2624 19.6372C7.73479 18.0688 5.66356 15.9504 4.14702 13.3811C2.73938 10.9963 1.81498 8.23231 1.43977 5.17237L1.42481 5.05106C1.33197 4.30056 1.25741 3.69778 1.4728 3.08628C1.69795 2.44708 2.23704 1.83785 2.84409 1.53658C3.16802 1.37581 3.4988 1.30944 3.85313 1.27876C4.1867 1.24988 4.58702 1.24989 5.05801 1.2499L5.08852 1.2499L5.21294 1.24983C5.89983 1.24921 6.43687 1.24873 6.90925 1.42696C7.43143 1.62399 7.8813 1.97524 8.19909 2.43404C8.48657 2.84909 8.61635 3.37021 8.78235 4.03674L8.81245 4.15746L8.93474 4.64662L8.9628 4.75879C9.22656 5.81287 9.39642 6.49174 9.37039 7.1701C9.34738 7.76961 9.21101 8.35933 8.96848 8.90807C8.69406 9.529 8.2434 10.0644 7.54366 10.8956L7.54365 10.8956L7.4692 10.9841ZM19.0099 21.0712C16.4117 20.7526 14.0654 20.0155 12.0174 18.9189L14.0136 17.4242C14.9415 16.7294 15.2974 16.4706 15.6804 16.3193C16.039 16.1775 16.4201 16.1007 16.8057 16.0925C17.2174 16.0837 17.6457 16.1844 18.7703 16.4656L19.4786 16.6426C20.3251 16.8543 20.5518 16.9231 20.7117 17.0339C20.9203 17.1783 21.0799 17.3828 21.1695 17.6202C21.2384 17.8027 21.25 18.031 21.25 18.8811C21.25 19.4007 21.2494 19.7439 21.2266 20.0109C21.205 20.2652 21.1666 20.3944 21.1197 20.489C20.992 20.7462 20.6861 21.0169 20.4153 21.1123C20.1746 21.197 19.9402 21.1853 19.0099 21.0712Z" fill="#04B939"/>
</g>
</svg>
